<mxfile host="app.diagrams.net" modified="2024-07-20T09:35:21.449Z" agent="Mozilla/5.0 (Windows NT 10.0; Win64; x64) AppleWebKit/537.36 (KHTML, like Gecko) Chrome/126.0.0.0 Safari/537.36" etag="p-pP3zULNFgGNOvQdB4j" version="24.6.4" type="github">
  <diagram name="Page-1" id="ijAiUG1EsQNkPOAIsrCs">
    <mxGraphModel dx="1434" dy="818" grid="1" gridSize="10" guides="1" tooltips="1" connect="1" arrows="1" fold="1" page="1" pageScale="1" pageWidth="827" pageHeight="1169" math="0" shadow="0">
      <root>
        <mxCell id="0" />
        <mxCell id="1" parent="0" />
        <mxCell id="b7IJgcalFpPB9l6ew4tw-38" value="X" style="edgeStyle=orthogonalEdgeStyle;shape=connector;curved=1;rounded=0;orthogonalLoop=1;jettySize=auto;html=1;strokeColor=#6c8ebf;align=center;verticalAlign=middle;fontFamily=Helvetica;fontSize=11;fontColor=default;labelBackgroundColor=default;endArrow=classic;endFill=1;exitX=1;exitY=0.5;exitDx=0;exitDy=0;entryX=0;entryY=0.5;entryDx=0;entryDy=0;fillColor=#dae8fc;" edge="1" parent="1" source="b7IJgcalFpPB9l6ew4tw-29" target="b7IJgcalFpPB9l6ew4tw-30">
          <mxGeometry relative="1" as="geometry">
            <Array as="points">
              <mxPoint x="320" y="350" />
              <mxPoint x="440" y="350" />
            </Array>
          </mxGeometry>
        </mxCell>
        <mxCell id="b7IJgcalFpPB9l6ew4tw-45" value="X" style="edgeStyle=orthogonalEdgeStyle;shape=connector;curved=1;rounded=0;orthogonalLoop=1;jettySize=auto;html=1;entryX=0;entryY=1;entryDx=0;entryDy=0;strokeColor=#6c8ebf;align=center;verticalAlign=middle;fontFamily=Helvetica;fontSize=11;fontColor=default;labelBackgroundColor=default;endArrow=classic;endFill=1;fillColor=#dae8fc;" edge="1" parent="1" source="b7IJgcalFpPB9l6ew4tw-29" target="b7IJgcalFpPB9l6ew4tw-31">
          <mxGeometry relative="1" as="geometry">
            <Array as="points">
              <mxPoint x="352" y="290" />
            </Array>
          </mxGeometry>
        </mxCell>
        <mxCell id="b7IJgcalFpPB9l6ew4tw-55" value="Y" style="edgeStyle=orthogonalEdgeStyle;shape=connector;curved=1;rounded=0;orthogonalLoop=1;jettySize=auto;html=1;entryX=0;entryY=0.5;entryDx=0;entryDy=0;strokeColor=#82b366;align=center;verticalAlign=middle;fontFamily=Helvetica;fontSize=11;fontColor=default;labelBackgroundColor=default;endArrow=classic;endFill=1;exitX=0;exitY=0.5;exitDx=0;exitDy=0;fillColor=#d5e8d4;" edge="1" parent="1" source="b7IJgcalFpPB9l6ew4tw-29" target="b7IJgcalFpPB9l6ew4tw-32">
          <mxGeometry relative="1" as="geometry">
            <Array as="points">
              <mxPoint x="190" y="320" />
              <mxPoint x="190" y="80" />
            </Array>
          </mxGeometry>
        </mxCell>
        <mxCell id="b7IJgcalFpPB9l6ew4tw-29" value="T1" style="ellipse;whiteSpace=wrap;html=1;aspect=fixed;fontFamily=Helvetica;fontSize=11;fontColor=default;labelBackgroundColor=default;" vertex="1" parent="1">
          <mxGeometry x="240" y="280" width="80" height="80" as="geometry" />
        </mxCell>
        <mxCell id="b7IJgcalFpPB9l6ew4tw-35" value="X" style="edgeStyle=orthogonalEdgeStyle;shape=connector;curved=1;rounded=0;orthogonalLoop=1;jettySize=auto;html=1;entryX=1;entryY=0.5;entryDx=0;entryDy=0;strokeColor=#6c8ebf;align=center;verticalAlign=middle;fontFamily=Helvetica;fontSize=11;fontColor=default;labelBackgroundColor=default;endArrow=classic;endFill=1;exitX=0.5;exitY=0;exitDx=0;exitDy=0;fillColor=#dae8fc;" edge="1" parent="1" source="b7IJgcalFpPB9l6ew4tw-30" target="b7IJgcalFpPB9l6ew4tw-31">
          <mxGeometry relative="1" as="geometry" />
        </mxCell>
        <mxCell id="b7IJgcalFpPB9l6ew4tw-40" value="X" style="edgeStyle=orthogonalEdgeStyle;shape=connector;curved=1;rounded=0;orthogonalLoop=1;jettySize=auto;html=1;entryX=1;entryY=0.5;entryDx=0;entryDy=0;strokeColor=#6c8ebf;align=center;verticalAlign=middle;fontFamily=Helvetica;fontSize=11;fontColor=default;labelBackgroundColor=default;endArrow=classic;endFill=1;exitX=0;exitY=0.5;exitDx=0;exitDy=0;fillColor=#dae8fc;" edge="1" parent="1" source="b7IJgcalFpPB9l6ew4tw-30" target="b7IJgcalFpPB9l6ew4tw-29">
          <mxGeometry relative="1" as="geometry">
            <Array as="points">
              <mxPoint x="440" y="290" />
              <mxPoint x="320" y="290" />
            </Array>
          </mxGeometry>
        </mxCell>
        <mxCell id="b7IJgcalFpPB9l6ew4tw-58" value="A" style="edgeStyle=orthogonalEdgeStyle;shape=connector;curved=1;rounded=0;orthogonalLoop=1;jettySize=auto;html=1;entryX=1;entryY=0.5;entryDx=0;entryDy=0;strokeColor=default;align=center;verticalAlign=middle;fontFamily=Helvetica;fontSize=11;fontColor=default;labelBackgroundColor=default;endArrow=classic;endFill=1;exitX=1;exitY=0.5;exitDx=0;exitDy=0;" edge="1" parent="1" source="b7IJgcalFpPB9l6ew4tw-30" target="b7IJgcalFpPB9l6ew4tw-33">
          <mxGeometry relative="1" as="geometry" />
        </mxCell>
        <mxCell id="b7IJgcalFpPB9l6ew4tw-30" value="T2" style="ellipse;whiteSpace=wrap;html=1;aspect=fixed;fontFamily=Helvetica;fontSize=11;fontColor=default;labelBackgroundColor=default;" vertex="1" parent="1">
          <mxGeometry x="440" y="280" width="80" height="80" as="geometry" />
        </mxCell>
        <mxCell id="b7IJgcalFpPB9l6ew4tw-36" value="X" style="edgeStyle=orthogonalEdgeStyle;shape=connector;curved=1;rounded=0;orthogonalLoop=1;jettySize=auto;html=1;strokeColor=#6c8ebf;align=center;verticalAlign=middle;fontFamily=Helvetica;fontSize=11;fontColor=default;labelBackgroundColor=default;endArrow=classic;endFill=1;fillColor=#dae8fc;" edge="1" parent="1" source="b7IJgcalFpPB9l6ew4tw-31" target="b7IJgcalFpPB9l6ew4tw-29">
          <mxGeometry relative="1" as="geometry">
            <Array as="points">
              <mxPoint x="290" y="200" />
            </Array>
          </mxGeometry>
        </mxCell>
        <mxCell id="b7IJgcalFpPB9l6ew4tw-52" value="Z" style="edgeStyle=orthogonalEdgeStyle;shape=connector;curved=1;rounded=0;orthogonalLoop=1;jettySize=auto;html=1;entryX=1;entryY=1;entryDx=0;entryDy=0;strokeColor=#b85450;align=center;verticalAlign=middle;fontFamily=Helvetica;fontSize=11;fontColor=default;labelBackgroundColor=default;endArrow=classic;endFill=1;exitX=0;exitY=0;exitDx=0;exitDy=0;fillColor=#f8cecc;" edge="1" parent="1" source="b7IJgcalFpPB9l6ew4tw-31" target="b7IJgcalFpPB9l6ew4tw-32">
          <mxGeometry relative="1" as="geometry" />
        </mxCell>
        <mxCell id="b7IJgcalFpPB9l6ew4tw-53" value="Z" style="edgeStyle=orthogonalEdgeStyle;shape=connector;curved=1;rounded=0;orthogonalLoop=1;jettySize=auto;html=1;entryX=0;entryY=1;entryDx=0;entryDy=0;strokeColor=#b85450;align=center;verticalAlign=middle;fontFamily=Helvetica;fontSize=11;fontColor=default;labelBackgroundColor=default;endArrow=classic;endFill=1;exitX=1;exitY=0;exitDx=0;exitDy=0;fillColor=#f8cecc;" edge="1" parent="1" source="b7IJgcalFpPB9l6ew4tw-31" target="b7IJgcalFpPB9l6ew4tw-33">
          <mxGeometry relative="1" as="geometry" />
        </mxCell>
        <mxCell id="b7IJgcalFpPB9l6ew4tw-31" value="T3" style="ellipse;whiteSpace=wrap;html=1;aspect=fixed;fontFamily=Helvetica;fontSize=11;fontColor=default;labelBackgroundColor=default;" vertex="1" parent="1">
          <mxGeometry x="340" y="160" width="80" height="80" as="geometry" />
        </mxCell>
        <mxCell id="b7IJgcalFpPB9l6ew4tw-54" value="Z" style="edgeStyle=orthogonalEdgeStyle;shape=connector;curved=1;rounded=0;orthogonalLoop=1;jettySize=auto;html=1;strokeColor=#b85450;align=center;verticalAlign=middle;fontFamily=Helvetica;fontSize=11;fontColor=default;labelBackgroundColor=default;endArrow=classic;endFill=1;exitX=1;exitY=0.5;exitDx=0;exitDy=0;entryX=0;entryY=0.5;entryDx=0;entryDy=0;fillColor=#f8cecc;" edge="1" parent="1" source="b7IJgcalFpPB9l6ew4tw-32" target="b7IJgcalFpPB9l6ew4tw-33">
          <mxGeometry relative="1" as="geometry">
            <Array as="points">
              <mxPoint x="320" y="110" />
              <mxPoint x="440" y="110" />
            </Array>
          </mxGeometry>
        </mxCell>
        <mxCell id="b7IJgcalFpPB9l6ew4tw-57" value="Y" style="edgeStyle=orthogonalEdgeStyle;shape=connector;curved=1;rounded=0;orthogonalLoop=1;jettySize=auto;html=1;entryX=0;entryY=0;entryDx=0;entryDy=0;strokeColor=#82b366;align=center;verticalAlign=middle;fontFamily=Helvetica;fontSize=11;fontColor=default;labelBackgroundColor=default;endArrow=classic;endFill=1;exitX=0;exitY=1;exitDx=0;exitDy=0;fillColor=#d5e8d4;" edge="1" parent="1" source="b7IJgcalFpPB9l6ew4tw-32" target="b7IJgcalFpPB9l6ew4tw-29">
          <mxGeometry relative="1" as="geometry">
            <Array as="points">
              <mxPoint x="230" y="108" />
              <mxPoint x="230" y="292" />
            </Array>
          </mxGeometry>
        </mxCell>
        <mxCell id="b7IJgcalFpPB9l6ew4tw-32" value="T5" style="ellipse;whiteSpace=wrap;html=1;aspect=fixed;fontFamily=Helvetica;fontSize=11;fontColor=default;labelBackgroundColor=default;" vertex="1" parent="1">
          <mxGeometry x="240" y="40" width="80" height="80" as="geometry" />
        </mxCell>
        <mxCell id="b7IJgcalFpPB9l6ew4tw-49" value="Z" style="edgeStyle=orthogonalEdgeStyle;shape=connector;curved=1;rounded=0;orthogonalLoop=1;jettySize=auto;html=1;strokeColor=#b85450;align=center;verticalAlign=middle;fontFamily=Helvetica;fontSize=11;fontColor=default;labelBackgroundColor=default;endArrow=classic;endFill=1;entryX=1;entryY=0.5;entryDx=0;entryDy=0;exitX=0;exitY=0.5;exitDx=0;exitDy=0;fillColor=#f8cecc;" edge="1" parent="1" source="b7IJgcalFpPB9l6ew4tw-33" target="b7IJgcalFpPB9l6ew4tw-32">
          <mxGeometry relative="1" as="geometry">
            <mxPoint x="320" y="100" as="targetPoint" />
            <Array as="points">
              <mxPoint x="440" y="50" />
              <mxPoint x="320" y="50" />
            </Array>
          </mxGeometry>
        </mxCell>
        <mxCell id="b7IJgcalFpPB9l6ew4tw-33" value="T4" style="ellipse;whiteSpace=wrap;html=1;aspect=fixed;fontFamily=Helvetica;fontSize=11;fontColor=default;labelBackgroundColor=default;" vertex="1" parent="1">
          <mxGeometry x="440" y="40" width="80" height="80" as="geometry" />
        </mxCell>
        <mxCell id="b7IJgcalFpPB9l6ew4tw-61" value="Z" style="edgeStyle=orthogonalEdgeStyle;shape=connector;curved=1;rounded=0;orthogonalLoop=1;jettySize=auto;html=1;entryX=1.013;entryY=0.338;entryDx=0;entryDy=0;entryPerimeter=0;strokeColor=#b85450;align=center;verticalAlign=middle;fontFamily=Helvetica;fontSize=11;fontColor=default;labelBackgroundColor=default;endArrow=classic;endFill=1;exitX=0.5;exitY=1;exitDx=0;exitDy=0;fillColor=#f8cecc;" edge="1" parent="1" source="b7IJgcalFpPB9l6ew4tw-33" target="b7IJgcalFpPB9l6ew4tw-31">
          <mxGeometry relative="1" as="geometry" />
        </mxCell>
        <mxCell id="b7IJgcalFpPB9l6ew4tw-62" value="Z" style="edgeStyle=orthogonalEdgeStyle;shape=connector;curved=1;rounded=0;orthogonalLoop=1;jettySize=auto;html=1;entryX=0.038;entryY=0.325;entryDx=0;entryDy=0;entryPerimeter=0;strokeColor=#b85450;align=center;verticalAlign=middle;fontFamily=Helvetica;fontSize=11;fontColor=default;labelBackgroundColor=default;endArrow=classic;endFill=1;exitX=0.5;exitY=1;exitDx=0;exitDy=0;fillColor=#f8cecc;" edge="1" parent="1" source="b7IJgcalFpPB9l6ew4tw-32" target="b7IJgcalFpPB9l6ew4tw-31">
          <mxGeometry relative="1" as="geometry">
            <Array as="points">
              <mxPoint x="280" y="186" />
            </Array>
          </mxGeometry>
        </mxCell>
      </root>
    </mxGraphModel>
  </diagram>
</mxfile>
